<svg width="541" height="479" viewBox="0 0 541 479" fill="none" xmlns="http://www.w3.org/2000/svg">
<g clipPath="url(#clip0_29_3132)">
<path d="M270.5 478.979C419.893 478.979 541 468.623 541 455.847C541 443.072 419.893 432.715 270.5 432.715C121.107 432.715 0 443.072 0 455.847C0 468.623 121.107 478.979 270.5 478.979Z" fill="#FDCAA0"/>
<path d="M421.652 130.129L346.331 130.352C345.942 130.353 345.627 130.669 345.628 131.058L345.639 134.744C345.64 135.133 345.957 135.447 346.346 135.446L421.667 135.223C422.056 135.222 422.371 134.906 422.37 134.517L422.359 130.831C422.358 130.442 422.041 130.127 421.652 130.129Z" fill="white"/>
<path d="M54.5978 39.8235H508.785C518.306 39.8235 526.023 47.5479 526.023 57.0327V350.666C526.023 360.172 518.285 367.875 508.785 367.875H54.5978C45.0763 367.875 37.3596 360.151 37.3596 350.666V57.0327C37.3596 47.5272 45.0971 39.8235 54.5978 39.8235Z" fill="#559AC9"/>
<path d="M495.426 39.8235H30.0371C23.61 39.8235 18.3998 45.0249 18.3998 51.4412V356.278C18.3998 362.695 23.61 367.896 30.0371 367.896H495.426C501.853 367.896 507.063 362.695 507.063 356.278V51.4412C507.063 45.0249 501.853 39.8235 495.426 39.8235Z" fill="#7BABF1"/>
<path d="M46.5077 56.9498C46.5077 60.3875 43.7073 63.1833 40.2638 63.1833C36.8203 63.1833 34.0199 60.3875 34.0199 56.9498C34.0199 53.5121 36.8203 50.7164 40.2638 50.7164C43.7073 50.7164 46.5077 53.5121 46.5077 56.9498Z" fill="#D3E6F8"/>
<path d="M67.7909 56.9498C67.7909 60.3875 64.9905 63.1833 61.547 63.1833C58.1035 63.1833 55.3031 60.3875 55.3031 56.9498C55.3031 53.5121 58.1035 50.7164 61.547 50.7164C64.9905 50.7164 67.7909 53.5121 67.7909 56.9498Z" fill="#D3E6F8"/>
<path d="M89.0741 56.9498C89.0741 60.3875 86.2737 63.1833 82.8302 63.1833C79.3867 63.1833 76.5863 60.3875 76.5863 56.9498C76.5863 53.5121 79.3867 50.7164 82.8302 50.7164C86.2737 50.7164 89.0741 53.5121 89.0741 56.9498Z" fill="#D3E6F8"/>
<path d="M491.111 71.5497H34.3933C30.269 71.5497 26.9255 74.8875 26.9255 79.005V354.725C26.9255 358.842 30.269 362.18 34.3933 362.18H491.111C495.235 362.18 498.579 358.842 498.579 354.725V79.005C498.579 74.8875 495.235 71.5497 491.111 71.5497Z" fill="#A4CFF2"/>
<path d="M479.453 88.6968H42.7945C41.3968 88.6968 40.2638 89.828 40.2638 91.2233V201.313C40.2638 202.708 41.3968 203.839 42.7945 203.839H479.453C480.851 203.839 481.984 202.708 481.984 201.313V91.2233C481.984 89.828 480.851 88.6968 479.453 88.6968Z" fill="white"/>
<path d="M479.453 226.205H42.7945C41.3968 226.205 40.2638 227.336 40.2638 228.731V338.821C40.2638 340.216 41.3968 341.347 42.7945 341.347H479.453C480.851 341.347 481.984 340.216 481.984 338.821V228.731C481.984 227.336 480.851 226.205 479.453 226.205Z" fill="white"/>
<path d="M106.354 175.675C102.89 175.675 99.612 172.755 96.5834 166.956C87.7258 149.933 80.9011 149.747 80.8388 149.747C80.1128 149.747 79.4905 149.167 79.4697 148.442C79.4697 147.718 79.9883 147.096 80.7351 147.076C81.5856 147.034 89.3231 147.179 98.9897 165.734C100.836 169.276 103.678 173.417 106.852 172.983C113.137 172.134 119.464 155.359 122.7 140.138C125.065 128.934 128.861 122.722 133.362 122.66C133.383 122.66 133.404 122.66 133.425 122.66C138.382 122.66 142.656 129.97 146.141 144.404C149.169 157.016 156.139 166.024 163.897 167.35C168.731 168.178 173.315 165.672 176.821 160.309C181.115 153.702 187.794 144.777 196.05 143.617C200.261 143.017 204.431 144.508 208.455 147.987C211.214 150.368 213.6 153.123 215.923 155.773C220.881 161.448 225.154 166.335 231.419 166.646C238.679 166.998 243.533 155.38 248.657 143.079C255.253 127.216 262.742 109.24 278.217 109.24C291.617 109.24 299.064 127.92 306.242 145.978L306.698 147.117C306.968 147.8 306.636 148.587 305.951 148.857C305.267 149.126 304.478 148.794 304.209 148.111L303.752 146.972C297.197 130.55 289.792 111.912 278.217 111.912C264.526 111.912 257.411 129.017 251.125 144.093C245.628 157.306 240.442 169.793 231.273 169.317C223.868 168.944 219.034 163.394 213.89 157.534C211.629 154.945 209.285 152.274 206.671 149.996C203.207 146.993 199.867 145.771 196.403 146.247C189.246 147.241 183.065 155.566 179.04 161.738C174.912 168.075 169.374 170.995 163.42 169.959C154.604 168.447 146.804 158.652 143.506 144.984C139.129 126.76 134.69 125.31 133.404 125.31H133.383C131.143 125.331 127.699 129.39 125.314 140.656C124.131 146.247 117.701 174.184 107.204 175.592C106.914 175.633 106.644 175.654 106.354 175.654V175.675Z" fill="#FFAE1E"/>
<path d="M457.942 105.513H395.544C394.891 105.513 394.362 106.041 394.362 106.693V111.104C394.362 111.756 394.891 112.284 395.544 112.284H457.942C458.595 112.284 459.124 111.756 459.124 111.104V106.693C459.124 106.041 458.595 105.513 457.942 105.513Z" fill="#D3E6F8"/>
<path d="M457.942 124.337H395.544C394.891 124.337 394.362 124.866 394.362 125.517V129.928C394.362 130.58 394.891 131.109 395.544 131.109H457.942C458.595 131.109 459.124 130.58 459.124 129.928V125.517C459.124 124.866 458.595 124.337 457.942 124.337Z" fill="#D3E6F8"/>
<path d="M457.942 143.182H395.544C394.891 143.182 394.362 143.711 394.362 144.363V148.774C394.362 149.426 394.891 149.954 395.544 149.954H457.942C458.595 149.954 459.124 149.426 459.124 148.774V144.363C459.124 143.711 458.595 143.182 457.942 143.182Z" fill="#D3E6F8"/>
<path d="M430.02 245.692H367.623C366.97 245.692 366.44 246.221 366.44 246.872V251.283C366.44 251.935 366.97 252.464 367.623 252.464H430.02C430.673 252.464 431.203 251.935 431.203 251.283V246.872C431.203 246.221 430.673 245.692 430.02 245.692Z" fill="#D3E6F8"/>
<path d="M133.279 194.479C132.906 194.479 132.615 194.189 132.615 193.816V115.536C132.615 115.163 132.906 114.873 133.279 114.873C133.653 114.873 133.943 115.184 133.943 115.536V193.816C133.943 194.189 133.653 194.479 133.279 194.479Z" fill="#D3E6F8"/>
<path d="M197.44 194.479C197.067 194.479 196.776 194.189 196.776 193.816V115.536C196.776 115.163 197.067 114.873 197.44 114.873C197.813 114.873 198.104 115.184 198.104 115.536V193.816C198.104 194.189 197.813 194.479 197.44 194.479Z" fill="#D3E6F8"/>
<path d="M277.802 195.017C277.428 195.017 277.138 194.706 277.138 194.354V100.832C277.138 100.46 277.428 100.17 277.802 100.17C278.175 100.17 278.466 100.46 278.466 100.832V194.354C278.466 194.727 278.175 195.017 277.802 195.017Z" fill="#D3E6F8"/>
<path d="M139.814 191.103H126.745C126.229 191.103 125.812 191.52 125.812 192.035V195.597C125.812 196.112 126.229 196.529 126.745 196.529H139.814C140.329 196.529 140.747 196.112 140.747 195.597V192.035C140.747 191.52 140.329 191.103 139.814 191.103Z" fill="#D3E6F8"/>
<path d="M203.974 191.103H190.906C190.39 191.103 189.972 191.52 189.972 192.035V195.597C189.972 196.112 190.39 196.529 190.906 196.529H203.974C204.49 196.529 204.908 196.112 204.908 195.597V192.035C204.908 191.52 204.49 191.103 203.974 191.103Z" fill="#D3E6F8"/>
<path d="M284.336 191.103H271.267C270.752 191.103 270.334 191.52 270.334 192.035V195.597C270.334 196.112 270.752 196.529 271.267 196.529H284.336C284.852 196.529 285.27 196.112 285.27 195.597V192.035C285.27 191.52 284.852 191.103 284.336 191.103Z" fill="#D3E6F8"/>
<path d="M120.501 234.468H78.3081C77.9071 234.468 77.582 234.792 77.582 235.193V237.968C77.582 238.368 77.9071 238.692 78.3081 238.692H120.501C120.902 238.692 121.227 238.368 121.227 237.968V235.193C121.227 234.792 120.902 234.468 120.501 234.468Z" fill="#D3E6F8"/>
<path d="M128.487 244.035H78.3081C77.9071 244.035 77.582 244.36 77.582 244.76V247.535C77.582 247.935 77.9071 248.26 78.3081 248.26H128.487C128.888 248.26 129.214 247.935 129.214 247.535V244.76C129.214 244.36 128.888 244.035 128.487 244.035Z" fill="#D3E6F8"/>
<path d="M88.0162 265.697H82.1042C81.2336 265.697 80.5277 266.402 80.5277 267.271V331.49C80.5277 332.359 81.2336 333.063 82.1042 333.063H88.0162C88.8869 333.063 89.5928 332.359 89.5928 331.49V267.271C89.5928 266.402 88.8869 265.697 88.0162 265.697Z" fill="#7BABF1"/>
<path d="M108.387 280.607H102.475C101.604 280.607 100.898 281.312 100.898 282.181V331.469C100.898 332.338 101.604 333.043 102.475 333.043H108.387C109.257 333.043 109.963 332.338 109.963 331.469V282.181C109.963 281.312 109.257 280.607 108.387 280.607Z" fill="#4C4372"/>
<path d="M131.143 294.172H125.231C124.36 294.172 123.654 294.877 123.654 295.746V331.469C123.654 332.338 124.36 333.043 125.231 333.043H131.143C132.013 333.043 132.719 332.338 132.719 331.469V295.746C132.719 294.877 132.013 294.172 131.143 294.172Z" fill="#7BABF1"/>
<path d="M153.235 254.162H147.323C146.452 254.162 145.746 254.867 145.746 255.736V331.469C145.746 332.338 146.452 333.043 147.323 333.043H153.235C154.106 333.043 154.812 332.338 154.812 331.469V255.736C154.812 254.867 154.106 254.162 153.235 254.162Z" fill="#FB8421"/>
<path d="M334.08 242.358H221.752C220.171 242.358 218.889 243.637 218.889 245.216V257.268C218.889 258.847 220.171 260.126 221.752 260.126H334.08C335.661 260.126 336.943 258.847 336.943 257.268V245.216C336.943 243.637 335.661 242.358 334.08 242.358Z" fill="#A4CFF2"/>
<path d="M328.873 253.665H225.942C225.679 253.665 225.465 253.878 225.465 254.141V255.902C225.465 256.165 225.679 256.378 225.942 256.378H328.873C329.137 256.378 329.35 256.165 329.35 255.902V254.141C329.35 253.878 329.137 253.665 328.873 253.665Z" fill="#7BABF1"/>
<path d="M280.831 255.032C280.831 256.626 279.524 257.931 277.926 257.931C276.329 257.931 275.022 256.626 275.022 255.032C275.022 253.437 276.329 252.133 277.926 252.133C279.524 252.133 280.831 253.437 280.831 255.032Z" fill="#FFAE1E"/>
<path d="M257.908 246.686H225.88C225.651 246.686 225.465 246.871 225.465 247.1V248.674C225.465 248.903 225.651 249.088 225.88 249.088H257.908C258.138 249.088 258.323 248.903 258.323 248.674V247.1C258.323 246.871 258.138 246.686 257.908 246.686Z" fill="#7BABF1"/>
<path d="M334.08 274.374H221.752C220.171 274.374 218.889 275.654 218.889 277.232V289.285C218.889 290.863 220.171 292.142 221.752 292.142H334.08C335.661 292.142 336.943 290.863 336.943 289.285V277.232C336.943 275.654 335.661 274.374 334.08 274.374Z" fill="#A4CFF2"/>
<path d="M328.873 285.702H225.942C225.679 285.702 225.465 285.915 225.465 286.178V287.938C225.465 288.202 225.679 288.415 225.942 288.415H328.873C329.137 288.415 329.35 288.202 329.35 287.938V286.178C329.35 285.915 329.137 285.702 328.873 285.702Z" fill="#7BABF1"/>
<path d="M254.672 287.048C254.672 288.643 253.366 289.947 251.768 289.947C250.171 289.947 248.864 288.643 248.864 287.048C248.864 285.453 250.171 284.149 251.768 284.149C253.366 284.149 254.672 285.453 254.672 287.048Z" fill="#292929"/>
<path d="M257.908 278.702H225.88C225.651 278.702 225.465 278.888 225.465 279.116V280.69C225.465 280.919 225.651 281.104 225.88 281.104H257.908C258.138 281.104 258.323 280.919 258.323 280.69V279.116C258.323 278.888 258.138 278.702 257.908 278.702Z" fill="#7BABF1"/>
<path d="M334.08 306.411H221.752C220.171 306.411 218.889 307.69 218.889 309.269V321.321C218.889 322.9 220.171 324.179 221.752 324.179H334.08C335.661 324.179 336.943 322.9 336.943 321.321V309.269C336.943 307.69 335.661 306.411 334.08 306.411Z" fill="#A4CFF2"/>
<path d="M328.873 317.718H225.942C225.679 317.718 225.465 317.931 225.465 318.194V319.955C225.465 320.218 225.679 320.431 225.942 320.431H328.873C329.137 320.431 329.35 320.218 329.35 319.955V318.194C329.35 317.931 329.137 317.718 328.873 317.718Z" fill="#7BABF1"/>
<path d="M322.152 319.064C322.152 320.659 320.845 321.963 319.248 321.963C317.651 321.963 316.344 320.659 316.344 319.064C316.344 317.47 317.651 316.165 319.248 316.165C320.845 316.165 322.152 317.47 322.152 319.064Z" fill="#4C4372"/>
<path d="M257.908 310.718H225.88C225.651 310.718 225.465 310.904 225.465 311.133V312.706C225.465 312.935 225.651 313.121 225.88 313.121H257.908C258.138 313.121 258.323 312.935 258.323 312.706V311.133C258.323 310.904 258.138 310.718 257.908 310.718Z" fill="#7BABF1"/>
<path d="M465.347 242.917H445.371C442.3 242.917 439.811 245.402 439.811 248.467V249.689C439.811 252.754 442.3 255.239 445.371 255.239H465.347C468.417 255.239 470.906 252.754 470.906 249.689V248.467C470.906 245.402 468.417 242.917 465.347 242.917Z" fill="#D3E6F8"/>
<path d="M469.973 249.068C469.973 252.153 467.463 254.659 464.372 254.659C461.281 254.659 458.771 252.153 458.771 249.068C458.771 245.982 461.281 243.476 464.372 243.476C467.463 243.476 469.973 245.982 469.973 249.068Z" fill="#FB8421"/>
<path d="M430.02 279.593H367.623C366.97 279.593 366.44 280.121 366.44 280.773V285.184C366.44 285.836 366.97 286.365 367.623 286.365H430.02C430.673 286.365 431.203 285.836 431.203 285.184V280.773C431.203 280.121 430.673 279.593 430.02 279.593Z" fill="#D3E6F8"/>
<path d="M465.347 276.818H445.371C442.3 276.818 439.811 279.303 439.811 282.368V283.59C439.811 286.655 442.3 289.14 445.371 289.14H465.347C468.417 289.14 470.906 286.655 470.906 283.59V282.368C470.906 279.303 468.417 276.818 465.347 276.818Z" fill="#D3E6F8"/>
<path d="M451.926 282.989C451.926 286.075 449.416 288.58 446.325 288.58C443.234 288.58 440.724 286.075 440.724 282.989C440.724 279.903 443.234 277.398 446.325 277.398C449.416 277.398 451.926 279.903 451.926 282.989Z" fill="#FB8421"/>
<path d="M430.02 311.609H367.623C366.97 311.609 366.44 312.137 366.44 312.789V317.2C366.44 317.852 366.97 318.381 367.623 318.381H430.02C430.673 318.381 431.203 317.852 431.203 317.2V312.789C431.203 312.137 430.673 311.609 430.02 311.609Z" fill="#D3E6F8"/>
<path d="M465.347 308.855H445.371C442.3 308.855 439.811 311.339 439.811 314.405V315.626C439.811 318.692 442.3 321.176 445.371 321.176H465.347C468.417 321.176 470.906 318.692 470.906 315.626V314.405C470.906 311.339 468.417 308.855 465.347 308.855Z" fill="#D3E6F8"/>
<path d="M469.973 315.005C469.973 318.091 467.463 320.597 464.372 320.597C461.281 320.597 458.771 318.091 458.771 315.005C458.771 311.919 461.281 309.414 464.372 309.414C467.463 309.414 469.973 311.919 469.973 315.005Z" fill="#FB8421"/>
<path d="M307.673 166.915C305.619 166.563 301.885 162.959 302.985 158.383C303.628 155.691 304.997 153.785 304.375 149.954C307.735 151.321 309.561 152.626 311.448 155.815C313.44 159.19 312.071 166.439 310.1 166.791C308.005 167.163 308.357 167.018 307.714 166.915H307.673Z" fill="#FFD600"/>
<path d="M311.971 165.243L305.598 166.587L314.304 207.76L320.677 206.417L311.971 165.243Z" fill="#292929"/>
<path d="M327.649 184.414C327.421 184.083 321.82 176.358 318.46 175.903C315.099 175.447 305.121 177.58 305.453 180.148C305.785 182.716 305.682 188.556 307.694 188.991C309.706 189.446 315.016 188.432 317.464 192.346C319.912 196.26 327.67 184.393 327.67 184.393L327.649 184.414Z" fill="#F1C48A"/>
<path d="M345.489 439.073C345.821 439.529 348.061 448.475 348.061 448.475C348.061 448.475 358.371 446.114 358.371 445.783C358.371 445.451 355.674 435.697 355.674 435.697L345.468 439.052L345.489 439.073Z" fill="#F1C48A"/>
<path d="M293.65 418.012C293.982 418.343 298.131 425.633 298.131 425.633L307.88 421.035L303.275 412.193L293.629 418.012H293.65Z" fill="#F1C48A"/>
<path d="M290.29 313.99C290.29 313.99 290.29 325.857 286.473 329.439C282.656 333.022 260.004 353.627 258.427 360.793C256.851 367.958 268.073 386.845 276.142 399.539C283.237 410.681 287.365 420.373 292.966 419.254C298.566 418.136 304.416 415.216 305.08 410.971C305.744 406.725 293.443 385.706 290.269 380.963C285.332 373.591 281.66 368.621 283.506 365.742C285.373 362.864 296.326 355.885 296.326 355.885L317.63 358.121C317.63 358.121 322.339 381.481 325.699 389.102C329.06 396.723 330.636 406.953 332.877 415.465C335.117 423.976 338.063 438.286 341.174 440.108C344.244 441.889 356.421 441.227 359.118 436.07C361.814 430.914 348.808 398.67 346.111 387.031C343.415 375.393 340.511 355.45 340.511 355.45C340.511 355.45 339.162 326.333 336.03 320.514C332.898 314.694 329.081 311.34 323.023 312.23C316.966 313.121 290.269 314.011 290.269 314.011L290.29 313.99Z" fill="#292929"/>
<path d="M271.454 349.051C271.143 349.051 270.915 348.802 270.915 348.512C270.915 340.912 265.501 335.196 258.303 335.196C251.104 335.196 245.607 340.933 245.607 348.512C245.607 348.823 245.358 349.051 245.068 349.051C244.778 349.051 244.529 348.802 244.529 348.512C244.529 340.436 250.586 334.099 258.323 334.099C266.061 334.099 272.035 340.291 272.035 348.512C272.035 348.823 271.786 349.051 271.496 349.051H271.454Z" fill="#4C4372"/>
<path d="M272.159 348.492H244.404V379.286H272.159V348.492Z" fill="#4C4372"/>
<path d="M267.285 361.207C265.521 361.207 264.069 359.778 264.069 357.997V348.492C264.069 348.492 264.069 348.492 264.09 348.471H270.458C270.458 348.471 270.458 348.471 270.479 348.492V357.997C270.479 359.757 269.048 361.207 267.264 361.207H267.285Z" fill="#FFAE1E"/>
<path d="M260.937 353.814C259.174 353.814 257.722 352.385 257.722 350.604V348.492H257.742L264.111 348.471H264.132V350.604C264.132 352.364 262.7 353.814 260.916 353.814H260.937Z" fill="#FFAE1E"/>
<path d="M255.896 326.664C255.896 326.664 251.561 336.253 254.175 337.827C256.788 339.4 263.903 339.835 264.941 338.717C265.978 337.599 265.252 336.667 265.791 335.051C266.662 332.463 267.886 329.605 267.886 329.605L255.876 326.664H255.896Z" fill="#F1C48A"/>
<path d="M293.318 238.941C293.422 239.396 296.243 250.704 294.999 255.508C293.775 260.333 305.765 256.067 305.765 256.067L303.068 239.5L293.318 238.941Z" fill="#F1C48A"/>
<path d="M304.084 251.573C304.084 251.573 294.998 252.919 290.953 253.582C286.908 254.245 284.108 256.709 279.399 257.827C274.69 258.946 272.906 263.129 271.433 271.206C270.5 276.321 269.629 282.223 265.957 297.175C264.401 303.512 248.097 325.256 252.888 327.72C255.772 329.191 258.863 327.12 263.364 331.303C267.866 335.486 269.463 335.466 271.247 333.871C274.566 330.93 275.416 321.487 276.806 316.061C279.358 306.266 283.382 284.501 285.373 285.308C288.36 286.551 289.667 294.565 288.775 299.038C287.883 303.512 287.012 310.636 288.775 314.57C290.725 318.898 328.355 315.544 328.355 315.544C328.355 315.544 333.043 316.372 332.441 321.156C331.84 325.94 333.644 331.614 336.03 326.229C338.415 320.845 341.112 311.008 336.03 303.532C330.948 296.077 332.151 280.545 332.151 280.545L343.228 257.827C343.228 257.827 349.783 226.66 350.696 221.193C351.899 214.028 332.794 181.473 328.645 181.473C321.364 181.473 316.302 188.204 313.73 193.795C310.785 200.215 317.755 199.117 320.887 199.677C325.824 200.567 334.702 216.099 333.437 222.146C332.275 227.737 328.873 244.097 328.873 244.097L304.084 251.573Z" fill="#7BABF1"/>
<path d="M296.803 209.845C286.348 211.978 283.071 223.678 287.012 232.915C290.891 242.026 298.836 242.544 299.272 248.136C299.728 253.727 297.26 261.348 303.317 264.04C309.374 266.732 314.975 266.981 316.78 274.022C318.584 281.063 319.02 285.101 329.122 285.329C339.224 285.557 352.687 269.652 348.87 261.369C345.053 253.085 331.155 251.511 330.699 244.801C330.242 238.092 328.458 230.699 322.173 227.551C315.888 224.424 315.493 223.181 313.502 218.149C311.262 212.475 304.52 208.291 296.824 209.865L296.803 209.845Z" fill="#292929"/>
<path d="M340.241 358.473H285.643C282.842 358.473 280.561 356.195 280.561 353.4C280.561 350.604 282.842 348.326 285.643 348.326H340.241C343.041 348.326 345.323 350.604 345.323 353.4C345.323 356.195 343.041 358.473 340.241 358.473Z" fill="#4C4372"/>
<path d="M312.942 455.847C312.589 455.847 312.32 455.578 312.32 455.226V358.473C312.32 358.121 312.589 357.852 312.942 357.852C313.295 357.852 313.564 358.121 313.564 358.473V455.226C313.564 455.578 313.295 455.847 312.942 455.847Z" fill="#4C4372"/>
<path d="M280.561 455.847C280.561 455.847 280.519 455.847 280.498 455.847C280.146 455.827 279.897 455.516 279.938 455.164L288.754 356.61C288.796 356.258 289.086 356.03 289.439 356.05C289.792 356.071 290.041 356.382 289.999 356.734L281.183 455.288C281.162 455.62 280.893 455.847 280.561 455.847Z" fill="#4C4372"/>
<path d="M345.468 455.847C345.157 455.847 344.887 455.599 344.846 455.288L336.03 356.734C336.009 356.382 336.258 356.092 336.59 356.05C336.922 356.03 337.233 356.278 337.274 356.61L346.091 455.164C346.111 455.516 345.862 455.806 345.53 455.847C345.53 455.847 345.489 455.847 345.468 455.847Z" fill="#4C4372"/>
<path d="M343.456 434.206H282.511C282.158 434.206 281.888 433.937 281.888 433.585C281.888 433.233 282.158 432.964 282.511 432.964H343.456C343.809 432.964 344.078 433.233 344.078 433.585C344.078 433.937 343.809 434.206 343.456 434.206Z" fill="#4C4372"/>
<path d="M307.714 420.683C307.714 420.973 314.187 428.221 309.478 431.183C305.101 433.937 291.783 443.65 289.916 441.558C288.132 439.57 298.151 425.612 298.151 425.612L307.735 420.663L307.714 420.683Z" fill="#7BABF1"/>
<path d="M348.061 448.475C348.206 448.703 348.061 457.401 352.998 456.448C357.458 455.599 375.236 452.989 375.236 450.525C375.236 447.377 358.371 445.783 358.371 445.783L348.061 448.475Z" fill="#7BABF1"/>
<path d="M286.991 232.894C288.174 235.13 289.937 236.953 291.679 238.754C293.422 240.577 295.206 242.399 296.575 244.615C297.26 245.713 297.82 246.935 298.11 248.219C298.4 249.502 298.463 250.869 298.276 252.174C297.965 254.68 297.591 257.165 297.508 259.629C297.446 262.073 297.654 264.579 299.106 266.463C299.79 267.416 300.724 268.182 301.761 268.803C302.28 269.135 302.798 269.362 303.4 269.694C304.001 270.004 304.541 270.398 305.059 270.833C307.071 272.655 308.067 275.223 308.503 277.729C308.897 280.255 308.835 282.844 308.378 285.308C308.544 282.803 308.44 280.255 307.86 277.853C307.32 275.451 306.242 273.111 304.375 271.62C303.898 271.268 303.42 270.916 302.902 270.646C302.383 270.377 301.74 270.087 301.201 269.756C300.081 269.093 299.002 268.244 298.193 267.167C296.492 264.972 296.181 262.135 296.305 259.608C296.43 257.041 296.845 254.535 297.197 252.05C297.591 249.668 297.011 247.245 295.807 245.112C293.422 240.825 289.024 237.657 287.012 232.935L286.991 232.894Z" fill="#292929"/>
<path d="M303.711 264.206C306.262 264.537 308.752 265.614 310.826 267.271C311.863 268.099 312.797 269.052 313.564 270.149C313.958 270.709 314.311 271.226 314.622 271.868C314.933 272.51 315.141 273.152 315.286 273.815C315.846 276.466 315.576 279.034 316.033 281.457C316.261 282.658 316.655 283.817 317.443 284.749C318.211 285.723 319.331 286.365 320.513 286.862C319.248 286.634 318.003 286.095 316.987 285.163C315.991 284.232 315.39 282.927 315.058 281.643C314.394 279.054 314.581 276.424 314.083 274.043C313.958 273.442 313.792 272.883 313.544 272.345C313.295 271.827 312.942 271.288 312.631 270.771C311.967 269.735 311.116 268.803 310.225 267.954C308.399 266.277 306.159 264.951 303.711 264.185V264.206Z" fill="#292929"/>
<path d="M293.318 211.004C288.962 213.738 286.328 218.584 285.975 223.554C285.767 226.06 285.809 228.566 286.348 231.009C286.846 233.453 287.821 235.793 288.879 238.071C289.398 239.21 289.999 240.349 290.58 241.467C291.182 242.565 291.845 243.704 292.364 244.905C293.463 247.266 293.982 250.041 293.401 252.671C293.132 253.976 292.613 255.197 292.011 256.336C291.431 257.496 290.704 258.532 290.497 259.753C289.978 262.218 291.389 264.744 293.318 266.339C292.281 265.593 291.368 264.641 290.746 263.502C290.124 262.363 289.833 261.017 290.02 259.691C290.186 258.345 290.891 257.186 291.389 256.047C291.928 254.908 292.343 253.727 292.551 252.505C292.966 250.082 292.405 247.597 291.348 245.361C290.829 244.242 290.186 243.166 289.543 242.027C288.92 240.908 288.298 239.769 287.759 238.589C286.618 236.269 285.726 233.805 285.207 231.237C284.689 228.669 284.627 226.018 284.979 223.451C285.29 220.862 286.182 218.315 287.593 216.119C289.066 213.966 290.995 212.102 293.318 211.004Z" fill="#292929"/>
<path d="M309.644 159.128C307.901 158.466 306.843 158.838 304.935 160.474C303.856 161.386 303.151 160.64 302.819 159.315C302.383 163.436 305.765 166.604 307.673 166.915C308.316 167.018 307.963 167.184 310.058 166.791C311.718 166.48 312.921 161.448 312.154 157.824C311.386 158.693 310.453 159.418 309.644 159.108V159.128Z" fill="#4C4372"/>
<path d="M70.7989 407.554C70.7989 407.554 44.3504 367.006 46.4041 313.597C48.3333 263.833 37.0693 238.112 37.0693 238.112C37.0693 238.112 90.2359 284.314 88.7631 353.462C87.7051 403.205 70.7989 407.554 70.7989 407.554Z" fill="#229854"/>
<path d="M73.6201 412.441C73.4126 412.441 73.2467 412.275 73.2674 412.068C73.2882 411.095 75.7982 313.452 49.9721 263.999C49.8683 263.812 49.9513 263.605 50.138 263.502C50.3247 263.398 50.5321 263.481 50.6359 263.667C76.545 313.307 74.0557 411.116 74.0142 412.089C74.0142 412.296 73.8483 412.441 73.6408 412.441H73.6201Z" fill="#4C4372"/>
<path d="M66.2145 314.177L53.5192 309.538C53.3325 309.476 53.2288 309.248 53.291 309.062C53.3533 308.875 53.5815 308.772 53.7681 308.834L65.9448 313.286L74.2009 302.435C74.3253 302.269 74.5535 302.248 74.7195 302.373C74.8854 302.497 74.9061 302.725 74.7817 302.89L66.1937 314.177H66.2145Z" fill="#4C4372"/>
<path d="M76.462 412.089C76.462 412.089 65.3847 337.971 111.581 302.663C107.101 322.833 107.806 377.733 87.5392 405.504C75.1551 422.464 76.462 412.089 76.462 412.089Z" fill="#FFD600"/>
<path d="M80.9426 405.856H80.9011C80.6937 405.835 80.5485 405.649 80.59 405.441C80.673 404.82 88.9913 343.232 101.624 321.528C101.728 321.363 101.956 321.301 102.122 321.404C102.288 321.508 102.35 321.736 102.247 321.901C89.6965 343.48 81.399 404.924 81.316 405.545C81.2953 405.731 81.1293 405.856 80.9426 405.856Z" fill="#4C4372"/>
<path d="M96.293 458.539H62.3353C60.2817 458.539 58.5185 457.028 58.2073 454.998L51.2996 409.542C50.9262 407.015 52.8761 404.758 55.4276 404.758H103.18C105.732 404.758 107.681 407.015 107.308 409.542L100.4 454.998C100.089 457.028 98.3467 458.539 96.2723 458.539H96.293Z" fill="#292929"/>
<path d="M53.2288 422.174L58.2073 454.998C58.5184 457.028 60.2609 458.539 62.3353 458.539H96.293C98.3467 458.539 100.11 457.028 100.421 454.998L105.4 422.174H53.2288Z" fill="#FB8421"/>
<path d="M112.349 398.587H46.4456C44.3834 398.587 42.7117 400.256 42.7117 402.314V412.793C42.7117 414.852 44.3834 416.521 46.4456 416.521H112.349C114.411 416.521 116.083 414.852 116.083 412.793V402.314C116.083 400.256 114.411 398.587 112.349 398.587Z" fill="#FB8421"/>
<path d="M73.3296 14.6827C73.0599 5.73641 76.6486 3.76905 77.4369 3.54125C78.4741 3.25132 79.449 9.19482 82.2287 10.9344C85.278 8.63567 96.2101 9.07056 98.1392 10.1888C100.774 8.59425 101.811 2.81643 103.74 2.9821C105.669 3.14778 107.91 12.3012 107.35 13.9165C114.921 4.88733 124.277 0.352057 136.225 3.41237e-06C150.766 -0.414177 163.171 10.6652 164.395 26.4869C165.474 40.4862 166.283 62.9141 160.309 63.1626C154.334 63.4111 154.708 40.4862 154.708 40.4862C154.708 40.4862 96.6664 41.4181 91.273 41.1696C82.768 40.7968 73.0392 36.6136 71.8568 26.4247C71.0685 19.6115 73.3503 14.662 73.3503 14.662L73.3296 14.6827Z" fill="#6667AC"/>
<path d="M81.1708 23.629C79.9261 23.6704 78.6193 23.3391 77.5199 22.2001C77.3746 22.0551 77.3954 21.8273 77.5199 21.6824C77.6651 21.5374 77.8932 21.5581 78.0385 21.6824C80.6314 24.3745 84.9254 21.7238 84.9669 21.7031C85.1329 21.5995 85.361 21.6409 85.4648 21.8066C85.5685 21.9723 85.527 22.2001 85.361 22.3036C85.3196 22.3036 83.3696 23.5462 81.15 23.6083L81.1708 23.629Z" fill="#D3E6F8"/>
<path d="M97.268 23.0699C94.9032 23.132 93.0778 21.8273 93.057 21.8066C92.8911 21.6824 92.8703 21.4546 92.974 21.3096C93.0985 21.1439 93.3267 21.1232 93.4719 21.2268C93.6171 21.3303 97.1643 23.8775 100.608 21.0197C100.753 20.8954 100.981 20.9161 101.106 21.0611C101.23 21.2061 101.209 21.4339 101.064 21.5788C99.7573 22.6557 98.4297 23.0285 97.2473 23.0699H97.268Z" fill="#D3E6F8"/>
<path d="M98.9275 27.5223C98.7823 27.5223 98.6371 27.4395 98.5749 27.2738C98.5126 27.0874 98.6163 26.8803 98.803 26.8182L103.574 25.1201C103.761 25.0579 103.968 25.1615 104.03 25.3479C104.093 25.5342 103.989 25.7413 103.802 25.8035L99.0312 27.5016C99.0312 27.5016 98.9482 27.5016 98.9275 27.5016V27.5223Z" fill="#D3E6F8"/>
<path d="M103.802 30.1109C103.802 30.1109 103.74 30.1109 103.719 30.1109L98.8861 29.1169C98.6994 29.0755 98.5749 28.8891 98.6164 28.682C98.6579 28.4956 98.8446 28.3507 99.052 28.4128L103.885 29.4068C104.072 29.4483 104.196 29.6346 104.155 29.8417C104.114 30.0074 103.968 30.1317 103.802 30.1317V30.1109Z" fill="#D3E6F8"/>
<path d="M80.4033 29.0341C80.4033 29.0341 80.3203 29.0341 80.2996 29.0341L75.4248 27.6051C75.2381 27.543 75.1343 27.3566 75.1758 27.1495C75.2381 26.9632 75.4247 26.8596 75.6322 26.901L80.507 28.33C80.6937 28.3921 80.7974 28.5785 80.7559 28.7856C80.7144 28.9305 80.5692 29.0341 80.424 29.0341H80.4033Z" fill="#D3E6F8"/>
<path d="M75.6322 31.9126C75.4663 31.9126 75.3211 31.8091 75.2796 31.6434C75.2381 31.457 75.3418 31.2499 75.5285 31.2085L80.3411 29.9246C80.5278 29.8624 80.7352 29.9867 80.7767 30.1731C80.8182 30.3595 80.7145 30.5665 80.5278 30.608L75.7152 31.8919C75.7152 31.8919 75.653 31.8919 75.6322 31.8919V31.9126Z" fill="#D3E6F8"/>
<path d="M91.5634 26.7975C91.6049 27.688 90.6507 28.4749 89.9869 28.4956C89.4683 28.4956 88.3274 27.8329 88.2859 26.9218C88.2444 26.0313 88.9704 25.8863 89.8832 25.8449C90.7751 25.8035 91.5219 25.8863 91.5634 26.7975Z" fill="#D3E6F8"/>
<path d="M88.2859 31.7884C88.1407 31.7884 87.9955 31.7884 87.8503 31.747C87.6636 31.7055 87.5391 31.4985 87.5806 31.3121C87.6221 31.1257 87.8088 31.0014 88.0162 31.0429C88.3067 31.105 88.5141 31.0429 88.7215 30.8979C89.5098 30.2352 89.6135 27.9779 89.572 27.1703C89.572 26.9632 89.7172 26.7975 89.9247 26.7975C90.1114 26.7975 90.2773 26.9425 90.2981 27.1496C90.2981 27.4809 90.4018 30.463 89.1986 31.457C88.9497 31.6641 88.6386 31.7884 88.3067 31.7884H88.2859Z" fill="#D3E6F8"/>
<path d="M91.8331 31.7055C91.5012 31.7055 91.19 31.6227 90.9204 31.4156C89.655 30.4837 89.572 27.5016 89.572 27.1703C89.572 26.9632 89.7587 26.7975 89.9247 26.7975C90.1321 26.7975 90.2981 26.9632 90.2981 27.1496C90.2981 27.9572 90.5262 30.2145 91.356 30.8151C91.5634 30.96 91.7916 31.0014 92.0613 30.9186C92.248 30.8772 92.4554 30.9807 92.5176 31.1671C92.5799 31.3535 92.4554 31.5606 92.2687 31.6227C92.1235 31.6641 91.9783 31.6848 91.8331 31.6848V31.7055Z" fill="#D3E6F8"/>
<path d="M387.786 62.1271C387.786 62.1271 381.708 82.0699 383.886 85.5904C386.064 89.0903 407.492 109.82 408.156 112.844C408.82 115.846 406.476 121.852 407.97 122.37C409.38 122.846 410.231 114.5 411.164 114.852C411.621 115.018 410.168 123.716 411.828 123.716C414.172 123.716 412.596 114.542 413.778 114.459C414.566 114.397 413.674 122.535 415.334 122.535C417.678 122.535 415.023 113.941 416.163 113.734C417.118 113.568 418.113 119.47 419.399 118.911C421.453 118.021 417.512 108.66 414.649 104.974C412.471 102.178 397.909 86.5224 398.573 80.5167C399.112 75.6915 402.369 64.2394 402.369 64.2394L387.744 62.1271H387.786Z" fill="#F1A36D"/>
<path d="M446.449 60.2426C446.615 61.1952 450.183 73.5585 448.503 78.2387C447.466 81.138 436.119 107.314 434.937 109.841C433.775 112.347 429.917 121.272 431.597 121.873C433.153 122.432 434.439 114.769 435.455 114.935C436.472 115.101 433.837 121.541 435.289 121.873C437.011 122.266 437.115 115.018 438.297 115.184C439.48 115.349 437.841 121.893 439.459 121.893C441.305 121.893 439.542 114.459 441.035 114.293C441.824 114.21 440.952 120.195 442.467 119.864C443.877 119.553 442.799 111.497 446.035 106.527C448.669 102.489 464.206 82.9397 463.459 74.5732C462.713 66.2068 462.049 57.4469 462.049 57.4469L446.429 60.2426H446.449Z" fill="#F1A36D"/>
<path d="M415.5 41.7494C415.5 41.7494 413.654 48.8526 409.318 53.098C406.041 56.3286 406.953 66.6624 403.448 66.7038C399.257 66.7452 383.803 68.2984 384.82 61.3609C386.002 53.3465 390.005 46.5953 391.686 39.4093C393.366 32.2233 394.777 14.9105 413.653 14.662C432.447 14.4342 437.55 16.0081 444.479 17.0021C453.191 18.2447 455.743 23.0285 458.439 32.7203C461.115 42.4121 466.156 57.1777 463.48 58.6894C460.804 60.2012 446.284 65.0471 443.255 62.0236C440.226 59 439.563 39.6164 432.987 38.3946C426.764 37.2348 416.827 34.9776 416.827 34.9776L415.5 41.7494Z" fill="#4C4372"/>
<path d="M409.339 37.1727C409.339 37.1727 410.563 50.323 412.139 53.2222C413.695 56.1215 418.383 60.3461 421.619 60.2426C424.855 60.139 430.435 55.0032 431.452 51.5448C432.447 48.0864 433.008 38.3946 433.008 38.3946L410.791 29.6968L409.339 37.1727Z" fill="#F1A36D"/>
<path d="M413.674 28.04C413.985 19.8807 420.146 15.5732 428.651 17.1885C437.219 18.8038 439.459 29.1583 449.955 28.5992C460.452 28.04 483.187 27.046 478.644 43.3026C474.412 58.4616 467.919 56.9706 462.07 49.9709C457.879 44.9593 453.71 48.8526 444.666 48.8526C437.281 48.8526 436.285 42.3086 428.921 42.4742C422.117 42.6192 413.239 39.5128 413.674 28.04Z" fill="#292929"/>
<path d="M416.246 31.3742C415.583 31.8091 415.375 44.8144 410.895 48.8526C398.49 46.2019 404.734 29.9246 407.866 25.3686C410.666 21.3096 414.234 19.3422 417.906 22.1173C421.993 25.2236 416.226 31.3742 416.226 31.3742H416.246Z" fill="#292929"/>
<path d="M419.337 40.1134C422.801 41.853 426.66 41.9979 430.373 43.4061C430.829 43.5925 431.306 43.8203 431.742 44.1103C431.97 44.2552 432.157 44.4623 432.364 44.6487C432.53 44.8351 432.696 45.0422 432.842 45.2285L434.563 47.5272C435.704 49.0183 437.011 50.3644 438.588 51.2135C440.164 52.1039 441.99 52.3939 443.815 52.2282C445.703 52.0625 447.632 51.814 449.561 51.7726C451.49 51.7105 453.461 51.7312 455.369 52.1454C457.278 52.5595 459.124 53.5122 460.306 55.0446C458.937 53.6778 457.133 52.9116 455.266 52.7045C453.399 52.4146 451.511 52.5181 449.603 52.6631C447.715 52.8495 445.827 53.098 443.898 53.3258C441.907 53.5536 439.791 53.2015 438.007 52.2282C436.223 51.2342 434.812 49.7431 433.651 48.1899L431.991 45.8498C431.846 45.6634 431.701 45.4978 431.576 45.3114C431.431 45.1664 431.286 45.0215 431.12 44.8972C430.788 44.6487 430.394 44.4209 429.979 44.2138C428.299 43.4476 426.411 42.992 424.585 42.4328C422.76 41.8323 420.893 41.211 419.296 40.1134H419.337Z" fill="#292929"/>
<path d="M433.609 19.3215C436.513 21.5788 439.5 23.8154 442.923 24.9337C444.624 25.5135 446.387 25.7828 448.171 25.7413C449.955 25.7413 451.656 25.265 453.565 24.9958C457.319 24.4988 461.136 24.9751 464.683 26.1555C468.231 27.3152 471.529 29.1376 474.454 31.3742C471.301 29.469 467.94 27.9158 464.434 26.9425C460.929 26.0106 457.278 25.6171 453.71 26.1141C451.988 26.3833 450.1 26.8803 448.171 26.8596C446.263 26.8596 444.354 26.5076 442.591 25.8242C439.065 24.3953 436.161 21.9516 433.609 19.3008V19.3215Z" fill="#292929"/>
<path d="M418.922 23.2355C418.051 22.0344 416.744 21.2061 415.354 20.854C413.965 20.5227 412.492 20.6676 411.185 21.2268C409.837 21.7445 408.799 22.7178 407.887 23.8154C406.995 24.913 406.289 26.1762 405.709 27.5016C404.547 30.1524 403.987 33.0309 403.738 35.9509C403.489 38.8502 403.696 41.8322 404.713 44.628C403.987 43.3233 403.489 41.8944 403.178 40.4033C402.887 38.9123 402.804 37.4005 402.825 35.8888C402.887 32.9067 403.365 29.821 404.651 27.0253C405.273 25.6378 406.061 24.2917 407.098 23.132C408.094 21.9516 409.442 21.0197 410.915 20.5227C412.367 19.9842 414.027 19.8807 415.479 20.3984C416.931 20.8954 418.196 21.8895 418.922 23.1941V23.2355Z" fill="#292929"/>
</g>
<defs>
<clipPath id="clip0_29_3132">
<rect width="541" height="479" fill="white"/>
</clipPath>
</defs>
</svg>
