<svg width="120" height="29" viewBox="0 0 120 29" fill="none" xmlns="http://www.w3.org/2000/svg">
<path d="M22.7864 0.935852H5.21363C2.33422 0.935852 0 3.18671 0 5.96328V22.9084C0 25.685 2.33422 27.9359 5.21363 27.9359H22.7864C25.6658 27.9359 28 25.685 28 22.9084V5.96328C28 3.18671 25.6658 0.935852 22.7864 0.935852Z" fill="#00529C"/>
<path d="M17.6495 6.6469H15.0826V9.12501H17.6495V6.6469ZM20.8013 10.1163V9.84565H18.2964V10.1305C18.2964 10.2074 18.2964 10.2872 18.2964 10.3641C18.2964 12.7738 16.3498 14.7335 13.9542 14.7335C11.5586 14.7335 9.65334 12.7738 9.65334 10.3527C9.65334 10.2815 9.65334 10.2102 9.65334 10.139V9.8542H7.18092V10.139C7.18092 10.2074 7.18092 10.2786 7.18092 10.347C7.18218 10.5963 7.19697 10.8454 7.22523 11.0933V22.2277H9.72423V15.5368C10.9313 16.4931 12.4451 17.0159 14.0074 17.0159C15.5696 17.0159 17.0835 16.4931 18.2905 15.5368V22.2277H20.7895V10.9622C20.8043 10.7685 20.8161 10.572 20.8161 10.3726C20.8073 10.2872 20.8043 10.2017 20.8013 10.1163ZM12.944 6.6469H10.38V9.12501H12.944V6.6469Z" fill="#F67F21"/>
<path d="M39.1902 8.27897C39.0816 8.36787 38.9947 8.48066 38.9361 8.60867C38.8776 8.73668 38.849 8.87651 38.8525 9.0174C38.8505 9.16506 38.8878 9.31056 38.9604 9.43883C39.0331 9.56709 39.1385 9.67345 39.2657 9.74688C39.8665 10.0454 40.5047 10.2607 41.1629 10.3868C42.0096 10.5642 42.8018 10.9433 43.4733 11.4922C43.7572 11.7694 43.9778 12.1056 44.1198 12.4773C44.2617 12.8491 44.3216 13.2475 44.2953 13.6449C44.3076 14.0835 44.219 14.519 44.0363 14.9173C43.8536 15.3156 43.5818 15.6659 43.2423 15.9407C42.4544 16.564 41.4705 16.8816 40.4698 16.8358C38.795 16.8256 37.1908 16.1558 36 14.9696L37.3907 13.2555C38.5148 14.2491 39.5589 14.7458 40.5009 14.7458C40.858 14.7654 41.2118 14.668 41.5095 14.4683C41.6264 14.3824 41.7207 14.269 41.7842 14.1379C41.8477 14.0069 41.8784 13.8622 41.8738 13.7165C41.8767 13.568 41.8429 13.4211 41.7754 13.2891C41.7079 13.1571 41.6089 13.044 41.4872 12.9602C41.0093 12.6976 40.4936 12.5119 39.9588 12.4097C38.9982 12.2321 38.0881 11.844 37.2929 11.273C36.7272 10.7986 36.4443 10.0616 36.4443 9.06215C36.4219 8.61887 36.5074 8.1768 36.6932 7.77435C36.8791 7.3719 37.1597 7.02125 37.5107 6.75289C38.2856 6.19223 39.223 5.90582 40.1765 5.93838C40.8893 5.94096 41.5966 6.06348 42.2692 6.30088C42.9348 6.52459 43.5527 6.87223 44.0909 7.32573L42.909 9.03978C42.1144 8.38755 41.1258 8.02204 40.101 8.0015C39.7748 7.98624 39.4533 8.08418 39.1902 8.27897Z" fill="#F67F21"/>
<path d="M53.0215 15.5424C52.6003 15.9587 52.1017 16.2872 51.5543 16.5091C51.0069 16.731 50.4214 16.8421 49.8314 16.8358C49.2776 16.8559 48.7254 16.7658 48.2062 16.5708C47.687 16.3757 47.2111 16.0795 46.8056 15.6991C46.403 15.3057 46.0881 14.8304 45.8821 14.3049C45.676 13.7794 45.5834 13.2157 45.6104 12.6514C45.5837 12.0864 45.6787 11.5223 45.8888 10.9977C46.099 10.4732 46.4193 10.0007 46.8278 9.61262C47.6036 8.87333 48.6346 8.46724 49.7025 8.48037C50.7334 8.45488 51.737 8.81524 52.5195 9.49179C52.907 9.83612 53.2125 10.264 53.4132 10.7436C53.614 11.2232 53.7049 11.7422 53.6791 12.262V13.4659H47.8187C47.8547 13.6839 47.9343 13.8924 48.0527 14.0785C48.1711 14.2647 48.3258 14.4247 48.5073 14.5489C48.8943 14.8316 49.3623 14.9793 49.8403 14.9696C50.2013 14.9815 50.5608 14.9168 50.8953 14.7795C51.2298 14.6423 51.5319 14.4356 51.7819 14.173L53.0215 15.5424ZM50.8711 10.7404C50.5539 10.4772 50.1534 10.3374 49.7425 10.3466C49.3037 10.3466 48.8767 10.4894 48.5251 10.7538C48.3465 10.881 48.1968 11.0449 48.0857 11.2347C47.9747 11.4244 47.9048 11.6358 47.8809 11.8548H51.4087C51.3987 11.6401 51.346 11.4296 51.2537 11.2358C51.1613 11.0421 51.0312 10.869 50.8711 10.727V10.7404Z" fill="#F67F21"/>
<path d="M57.5357 12.1859V16.7015H55.3142V8.60567H57.5357V9.50074C57.8255 9.17931 58.1777 8.92129 58.5705 8.74269C58.9634 8.56408 59.3885 8.4687 59.8195 8.46246C60.2174 8.45302 60.6128 8.52781 60.9801 8.68199C61.3475 8.83617 61.6787 9.06631 61.9522 9.35753C62.2454 9.68224 62.4721 10.0621 62.6193 10.4753C62.7664 10.8884 62.8311 11.3268 62.8097 11.7652V16.6881H60.5881V12.1277C60.5881 10.8836 60.1438 10.2615 59.2241 10.2615C59.0062 10.2603 58.7903 10.3027 58.5889 10.3865C58.3875 10.4703 58.2046 10.5936 58.0511 10.7493C57.872 10.9404 57.7338 11.1665 57.6451 11.4137C57.5564 11.6608 57.5192 11.9237 57.5357 12.1859Z" fill="#F67F21"/>
<path d="M66.0976 19.8924C65.2617 19.8717 64.466 19.527 63.8761 18.9302L64.8802 17.2609C65.028 17.4266 65.207 17.561 65.4069 17.6563C65.6067 17.7516 65.8234 17.8058 66.0443 17.8159C66.1522 17.8128 66.2577 17.783 66.3514 17.7292C66.4452 17.6753 66.5243 17.599 66.5819 17.5071C66.7251 17.3197 66.8031 17.0901 66.8041 16.8537C66.8041 16.621 65.7673 13.8716 63.6939 8.60567H66.0843L68.0437 13.6449L69.9986 8.60567H72.389L68.6568 18.1471C68.4543 18.6727 68.096 19.1228 67.6305 19.4359C67.1753 19.7369 66.642 19.8957 66.0976 19.8924Z" fill="#F67F21"/>
<path d="M78.7116 12.9691V8.60567H80.9687V16.7015H78.7116V15.6319C78.4812 15.9983 78.1623 16.2998 77.7846 16.508C77.4068 16.7163 76.9828 16.8244 76.5522 16.8224C75.7324 16.8463 74.9356 16.5477 74.3307 15.9899C74.0174 15.6631 73.7763 15.2733 73.6232 14.846C73.47 14.4187 73.4083 13.9636 73.4421 13.5106V8.58777H75.6947V12.996C75.6947 14.2401 76.1479 14.8622 77.0543 14.8622C77.2682 14.8652 77.4806 14.8251 77.6789 14.7444C77.8773 14.6638 78.0577 14.544 78.2095 14.3923C78.3848 14.2018 78.5197 13.9775 78.6061 13.7328C78.6924 13.4881 78.7283 13.2282 78.7116 12.9691Z" fill="#F67F21"/>
<path d="M92.6674 10.078L89.846 15.8288H88.4553L85.6428 10.078V16.7015H83.3146V6.18005H86.4648L89.1573 11.9622L91.8632 6.18005H95V16.7015H92.6674V10.078Z" fill="#F67F21"/>
<path d="M79.7024 20.4339L78.6538 22.5508H78.1473L77.1165 20.4339V22.8685H76.2545V18.9974H77.4186L78.4094 21.1231L79.4047 18.9974H80.5599V22.8685H79.7024V20.4339Z" fill="#00529C"/>
<path d="M84.3854 21.3603C84.3901 21.5634 84.3531 21.7652 84.2766 21.9531C84.2002 22.141 84.0859 22.311 83.9411 22.4523C83.6379 22.7322 83.2416 22.8875 82.8303 22.8875C82.4191 22.8875 82.0228 22.7322 81.7196 22.4523C81.4352 22.161 81.2758 21.7689 81.2758 21.3603C81.2758 20.9518 81.4352 20.5596 81.7196 20.2684C82.0218 19.9865 82.4185 19.83 82.8303 19.83C83.2422 19.83 83.6389 19.9865 83.9411 20.2684C84.0855 20.41 84.1995 20.58 84.2759 20.7678C84.3523 20.9557 84.3896 21.1574 84.3854 21.3603ZM82.0839 21.3603C82.0734 21.5778 82.1466 21.791 82.2883 21.9555C82.3557 22.029 82.4375 22.0877 82.5284 22.1278C82.6194 22.1679 82.7177 22.1886 82.817 22.1886C82.9163 22.1886 83.0146 22.1679 83.1056 22.1278C83.1966 22.0877 83.2784 22.029 83.3457 21.9555C83.4806 21.7869 83.5542 21.5769 83.5542 21.3603C83.5542 21.1438 83.4806 20.9337 83.3457 20.7651C83.2791 20.6904 83.1975 20.6307 83.1065 20.5898C83.0154 20.5489 82.9168 20.5277 82.817 20.5277C82.7173 20.5277 82.6187 20.5489 82.5276 20.5898C82.4365 20.6307 82.355 20.6904 82.2883 20.7651C82.1474 20.9301 82.0743 21.143 82.0839 21.3603Z" fill="#00529C"/>
<path d="M86.7003 19.8387C86.8798 19.8418 87.0566 19.8833 87.219 19.9604C87.3814 20.0376 87.5257 20.1487 87.6422 20.2863C87.7766 20.4321 87.8811 20.6033 87.9497 20.7899C88.0183 20.9765 88.0497 21.1749 88.0421 21.3738C88.0538 21.7852 87.9055 22.1851 87.6289 22.4881C87.514 22.6265 87.3707 22.7382 87.2089 22.8154C87.047 22.8927 86.8705 22.9337 86.6914 22.9356C86.5183 22.9393 86.347 22.9005 86.1922 22.8225C86.0373 22.7445 85.9037 22.6298 85.8028 22.4881V22.8775H84.9763V18.7646H85.8028V20.2281C85.9136 20.0993 86.0519 19.9974 86.2073 19.93C86.3627 19.8626 86.5312 19.8314 86.7003 19.8387ZM85.8116 21.3827C85.8041 21.5984 85.877 21.8092 86.016 21.9734C86.074 22.0467 86.1477 22.1057 86.2316 22.146C86.3155 22.1863 86.4074 22.2069 86.5003 22.2062C86.5958 22.2064 86.6901 22.1857 86.7768 22.1455C86.8635 22.1053 86.9405 22.0466 87.0024 21.9734C87.1478 21.8124 87.2244 21.6002 87.2157 21.3827C87.2238 21.1634 87.1492 20.9491 87.0068 20.783C86.948 20.7065 86.8726 20.6446 86.7863 20.6019C86.7001 20.5593 86.6053 20.537 86.5092 20.5369C86.4141 20.5362 86.3201 20.5576 86.2345 20.5995C86.149 20.6415 86.0742 20.7027 86.016 20.7785C85.8749 20.9471 85.8005 21.1623 85.8072 21.3827H85.8116Z" fill="#00529C"/>
<path d="M88.7308 19.5075C88.6399 19.4153 88.5889 19.2907 88.5889 19.1607C88.5889 19.0308 88.6399 18.9061 88.7308 18.8139C88.7746 18.7674 88.8278 18.731 88.8869 18.7071C88.9459 18.6831 89.0093 18.6722 89.0729 18.6751C89.1364 18.6722 89.1999 18.6831 89.2589 18.7071C89.3179 18.731 89.3712 18.7674 89.415 18.8139C89.482 18.8827 89.5274 18.9698 89.5457 19.0644C89.564 19.1589 89.5544 19.2569 89.518 19.346C89.4815 19.4351 89.4199 19.5114 89.3408 19.5656C89.2617 19.6198 89.1685 19.6494 89.0729 19.6508C89.009 19.6531 88.9453 19.6415 88.8863 19.6168C88.8273 19.5921 88.7742 19.5548 88.7308 19.5075ZM89.4861 22.8685H88.6597V19.888H89.4861V22.8685Z" fill="#00529C"/>
<path d="M91.0945 22.8685H90.2725V18.7557H91.0945V22.8685Z" fill="#00529C"/>
<path d="M94.4402 22.4389C94.1251 22.7472 93.702 22.9176 93.2628 22.9133C92.8512 22.9274 92.4506 22.7779 92.1475 22.4971C91.9985 22.3523 91.8818 22.1773 91.8052 21.9836C91.7286 21.7899 91.6938 21.582 91.7032 21.3738C91.6933 21.1661 91.7279 20.9587 91.8045 20.7656C91.8812 20.5726 91.9982 20.3984 92.1475 20.2549C92.4342 19.9823 92.8152 19.833 93.2094 19.8387C93.5882 19.8298 93.9568 19.9621 94.2447 20.2102C94.3906 20.3353 94.5063 20.4922 94.5833 20.6689C94.6603 20.8457 94.6964 21.0377 94.689 21.2305V21.6781H92.5341C92.5454 21.7589 92.5739 21.8363 92.6176 21.905C92.6613 21.9738 92.7192 22.0322 92.7873 22.0764C92.9265 22.1791 93.0947 22.234 93.2672 22.233C93.401 22.2371 93.5341 22.2129 93.6581 22.162C93.7821 22.1111 93.8941 22.0347 93.987 21.9376L94.4402 22.4389ZM93.6449 20.6711C93.5295 20.5735 93.3822 20.5225 93.2316 20.5279C93.0716 20.5276 92.9158 20.5794 92.7873 20.6756C92.721 20.7214 92.6652 20.7811 92.6238 20.8506C92.5823 20.9201 92.5563 20.9978 92.5474 21.0784H93.8492C93.8444 21.0001 93.8238 20.9236 93.7887 20.8535C93.7536 20.7835 93.7046 20.7215 93.6449 20.6711Z" fill="#00529C"/>
</svg>
